<svg aria-hidden="true" style="position: absolute; width: 0; height: 0; overflow: hidden;" version="1.1" xmlns="http://www.w3.org/2000/svg" xmlns:xlink="http://www.w3.org/1999/xlink">
<defs>
<symbol id="icon-arrow" viewBox="0 0 21 32">
<path d="M21.333 21.333l-1.88-1.88-7.453 7.44v-26.893h-2.667v26.893l-7.44-7.453-1.893 1.893 10.667 10.667 10.667-10.667z"></path>
</symbol>
<symbol id="icon-account" viewBox="0 0 32 32">
<path d="M16 0c-8.832 0-16 7.168-16 16s7.168 16 16 16c8.832 0 16-7.168 16-16s-7.168-16-16-16zM8.112 26.048c0.688-1.44 4.88-2.848 7.888-2.848s7.216 1.408 7.888 2.848c-2.176 1.728-4.912 2.752-7.888 2.752s-5.712-1.024-7.888-2.752zM26.176 23.728c-2.288-2.784-7.84-3.728-10.176-3.728s-7.888 0.944-10.176 3.728c-1.632-2.144-2.624-4.816-2.624-7.728 0-7.056 5.744-12.8 12.8-12.8s12.8 5.744 12.8 12.8c0 2.912-0.992 5.584-2.624 7.728zM16 6.4c-3.104 0-5.6 2.496-5.6 5.6s2.496 5.6 5.6 5.6c3.104 0 5.6-2.496 5.6-5.6s-2.496-5.6-5.6-5.6zM16 14.4c-1.328 0-2.4-1.072-2.4-2.4s1.072-2.4 2.4-2.4c1.328 0 2.4 1.072 2.4 2.4s-1.072 2.4-2.4 2.4z"></path>
</symbol>
<symbol id="icon-menu" viewBox="0 0 32 32">
<path d="M2 6h28v6h-28zM2 14h28v6h-28zM2 22h28v6h-28z"></path>
</symbol>
</defs>
</svg>
